<svg xmlns="http://www.w3.org/2000/svg">
  <defs>
    <svg id="volume-mute" viewBox="0 0 24 24" fill="none" stroke="currentColor" stroke-width="2" stroke-linecap="round" stroke-linejoin="round">
      <path d="M3 14V10C3 9.44772 3.44772 9 4 9H6.64922C6.87629 9 7.0966 8.92272 7.27391 8.78087L10.3753 6.29976C11.0301 5.77595 12 6.24212 12 7.08062V16.9194C12 17.7579 11.0301 18.2241 10.3753 17.7002L7.27391 15.2191C7.0966 15.0773 6.87629 15 6.64922 15H4C3.44772 15 3 14.5523 3 14Z" />
      <path d="M16 9.5L18.5 12M21 14.5L18.5 12M18.5 12L21 9.5M18.5 12L16 14.5" />
    </svg>
    <svg id="volume-high" viewBox="0 0 24 24" fill="none" stroke="currentColor" stroke-width="2" stroke-linecap="round" stroke-linejoin="round">
      <path d="M3 14V10C3 9.44772 3.44772 9 4 9H6.64922C6.87629 9 7.0966 8.92272 7.27391 8.78087L10.3753 6.29976C11.0301 5.77595 12 6.24212 12 7.08062V16.9194C12 17.7579 11.0301 18.2241 10.3753 17.7002L7.27391 15.2191C7.0966 15.0773 6.87629 15 6.64922 15H4C3.44772 15 3 14.5523 3 14Z" />
      <path d="M15.8302 15.2139C16.5435 14.3639 16.9537 13.3008 16.9963 12.1919C17.0389 11.0831 16.7114 9.99163 16.0655 9.08939" />
      <path d="M18.8944 17.7851C20.2406 16.1807 20.9852 14.1571 20.9998 12.0628C21.0144 9.96855 20.2982 7.93473 18.9745 6.31174" />
    </svg>
    <svg id="volume-low" viewBox="0 0 24 24" fill="none" stroke="currentColor" stroke-width="2" stroke-linecap="round" stroke-linejoin="round">
      <path d="M3 14V10C3 9.44772 3.44772 9 4 9H6.64922C6.87629 9 7.0966 8.92272 7.27391 8.78087L10.3753 6.29976C11.0301 5.77595 12 6.24212 12 7.08062V16.9194C12 17.7579 11.0301 18.2241 10.3753 17.7002L7.27391 15.2191C7.0966 15.0773 6.87629 15 6.64922 15H4C3.44772 15 3 14.5523 3 14Z" />
      <path d="M15.8302 15.2139C16.5435 14.3639 16.9537 13.3008 16.9963 12.1919C17.0389 11.0831 16.7114 9.99163 16.0655 9.08939" />
    </svg>
    <svg id="puzzle-type" viewBox="0 0 24 24" fill="none" stroke="currentColor" stroke-width="2" stroke-linecap="round" stroke-linejoin="round">
      <path d="M20 7H17.8486C17.3511 7 17 6.49751 17 6C17 4.34315 15.6569 3 14 3C12.3431 3 11 4.34315 11 6C11 6.49751 10.6488 7 10.1513 7H8C7.44771 7 7 7.44772 7 8V10.1513C7 10.6488 6.49751 11 6 11C4.34315 11 3 12.3431 3 14C3 15.6569 4.34315 17 6 17C6.49751 17 7 17.3511 7 17.8486V20C7 20.5523 7.44771 21 8 21L20 21C20.5523 21 21 20.5523 21 20V17.8486C21 17.3511 20.4975 17 20 17C18.3431 17 17 15.6569 17 14C17 12.3431 18.3431 11 20 11C20.4975 11 21 10.6488 21 10.1513L21 8C21 7.44772 20.5523 7 20 7Z" />
    </svg>
    <svg id="puzzle-location" viewBox="0 0 24 24" fill="none" stroke="currentColor" stroke-width="2" stroke-linecap="round" stroke-linejoin="round">
      <path d="M19 9.75C19 15.375 12 21 12 21C12 21 5 15.375 5 9.75C5 6.02208 8.13401 3 12 3C15.866 3 19 6.02208 19 9.75Z" />
      <circle cx="12" cy="10" r="3" />
    </svg>
    <svg id="puzzle-givenBy" viewBox="0 0 48 48" fill="currentColor">
      <path d="M24.3,6A11.2,11.2,0,0,0,16,9.3a11,11,0,0,0-3.5,8.2,2.5,2.5,0,0,0,5,0,6.5,6.5,0,0,1,2-4.7A6.2,6.2,0,0,1,24.2,11a6.5,6.5,0,0,1,1,12.9,4.4,4.4,0,0,0-3.7,4.4v3.2a2.5,2.5,0,0,0,5,0V28.7a11.6,11.6,0,0,0,9-11.5A11.7,11.7,0,0,0,24.3,6Z" />
      <circle cx="24" cy="40" r="2.5" />
    </svg>
    <svg id="puzzle-solvedBy" viewBox="0 0 48 48" fill="currentColor">
      <path d="M23.8,34h.4a2.2,2.2,0,0,0,2.1-2L28,7.3a4,4,0,1,0-8,0L21.7,32A2.2,2.2,0,0,0,23.8,34Z" />
      <circle cx="24" cy="40" r="2.5" />
    </svg>
    <svg id="puzzle-solved" viewBox="0 0 20 20" fill="currentColor">
      <path d="M6.25 9.75 L13.75 9.75 L13.75 9.25 L6.25 9.25 L6.25 9.75 L6.25 9.75 L6.25 9.75 L6.25 9.75 ZM6.25 7.75 L13.75 7.75 L13.75 2.25 L6.25 2.25 L6.25 7.75 L6.25 7.75 L6.25 7.75 L6.25 7.75 ZM10.5 15.75 C10.7 15.75 10.89 15.83 11.03 15.97 C11.17 16.11 11.25 16.3 11.25 16.5 C11.25 16.7 11.17 16.89 11.03 17.03 C10.89 17.17 10.7 17.25 10.5 17.25 L9.5 17.25 C9.3 17.25 9.11 17.17 8.97 17.03 C8.83 16.89 8.75 16.7 8.75 16.5 C8.75 16.3 8.83 16.11 8.97 15.97 C9.11 15.83 9.3 15.75 9.5 15.75 L10.5 15.75 L10.5 15.75 L10.5 15.75 ZM6.75 12.5 C6.75 12.086 7.086 11.75 7.5 11.75 C7.914 11.75 8.25 12.086 8.25 12.5 C8.25 12.914 7.914 13.25 7.5 13.25 C7.086 13.25 6.75 12.914 6.75 12.5 L6.75 12.5 ZM13.75 11.25 L6.25 11.25 L6.25 12.81 L5.25 13.81 L5.25 14.19 L6.25 15.19 L6.25 16.19 L7.03 16.97 L7.81 17.75 L12.19 17.75 L12.97 16.97 L13.75 16.19 L13.75 15.19 L14.75 14.19 L14.75 13.81 L13.75 12.81 L13.75 11.25 L13.75 11.25 L13.75 11.25 L13.75 11.25 ZM4.75 1.5 L4.75 1.5 C4.75 1.3 4.83 1.11 4.97 0.97 C5.11 0.83 5.3 0.75 5.5 0.75 L5.5 0.75 L5.5 0.75 L14.5 0.75 L14.5 0.75 L14.5 0.75 L14.5 0.75 C14.7 0.75 14.89 0.83 15.03 0.97 L15.03 0.97 L15.03 0.97 C15.17 1.11 15.25 1.3 15.25 1.5 L15.25 1.5 L15.25 9.75 L16.5 9.75 L16.5 9.75 L16.5 9.75 C16.7 9.75 16.89 9.83 17.03 9.97 C17.17 10.11 17.25 10.3 17.25 10.5 C17.25 10.7 17.17 10.89 17.03 11.03 C16.89 11.17 16.7 11.25 16.5 11.25 L15.25 11.25 L15.25 12.19 L16.25 13.19 L16.25 14.81 L15.25 15.81 L15.25 16.81 L14.03 18.03 L12.81 19.25 L7.19 19.25 L5.97 18.03 L4.75 16.81 L4.75 15.81 L3.75 14.81 L3.75 13.19 L4.75 12.19 L4.75 11.25 L3.5 11.25 C3.3 11.25 3.11 11.17 2.97 11.03 C2.83 10.89 2.75 10.7 2.75 10.5 C2.75 10.3 2.83 10.11 2.97 9.97 C3.11 9.83 3.3 9.75 3.5 9.75 L4.75 9.75 L4.75 1.5 L4.75 1.5 L4.75 1.5 L4.75 1.5 L4.75 1.5 ZM11.75 12.5 C11.75 12.086 12.086 11.75 12.5 11.75 C12.914 11.75 13.25 12.086 13.25 12.5 C13.25 12.914 12.914 13.25 12.5 13.25 C12.086 13.25 11.75 12.914 11.75 12.5 Z" />
    </svg>
    <svg id="search" viewBox="0 0 20 20" fill="currentColor">
      <path d="M4 9a5 5 0 1110 0A5 5 0 014 9zm5-7a7 7 0 104.2 12.6.999.999 0 00.093.107l3 3a1 1 0 001.414-1.414l-3-3a.999.999 0 00-.107-.093A7 7 0 009 2z" />
    </svg>
    <svg id="gear" viewBox="0 0 56 56" fill="currentColor">
      <path d="M 28.0000 50.8281 C 28.6094 50.8281 29.1719 50.7578 29.8047 50.7110 L 31.1641 53.2891 C 31.4219 53.8047 31.9375 54.0859 32.5704 53.9922 C 33.1563 53.8750 33.5782 53.4532 33.6485 52.8203 L 34.0704 49.9844 C 35.2188 49.6797 36.3672 49.2344 37.4922 48.7422 L 39.6016 50.6406 C 40.0469 51.0625 40.6094 51.1563 41.1953 50.8281 C 41.7110 50.5469 41.9219 49.9844 41.8047 49.3750 L 41.2188 46.5625 C 42.1797 45.8828 43.1407 45.1094 44.0078 44.2422 L 46.6328 45.3438 C 47.2189 45.5781 47.7579 45.4610 48.2034 44.9219 C 48.6018 44.5000 48.6483 43.8906 48.3205 43.3750 L 46.7970 40.9375 C 47.5002 39.9532 48.0627 38.8984 48.6018 37.7735 L 51.4611 37.9141 C 52.0703 37.9375 52.5858 37.6094 52.7970 37.0235 C 52.9842 36.4375 52.7970 35.8750 52.3045 35.5 L 50.0783 33.7188 C 50.3831 32.5937 50.6173 31.3750 50.7109 30.1094 L 53.4296 29.2657 C 54.0157 29.0547 54.3906 28.6094 54.3906 27.9766 C 54.3906 27.3672 54.0157 26.9219 53.4296 26.7110 L 50.7109 25.8437 C 50.6173 24.5781 50.3831 23.4063 50.0783 22.2578 L 52.3045 20.4532 C 52.7970 20.1016 52.9842 19.5625 52.7970 18.9766 C 52.5858 18.3906 52.0703 18.0625 51.4611 18.0859 L 48.6018 18.2032 C 48.0627 17.0781 47.5002 16.0235 46.7970 15.0391 L 48.3205 12.6016 C 48.6483 12.1094 48.6018 11.5000 48.2034 11.0781 C 47.7579 10.5391 47.2189 10.3984 46.6328 10.6563 L 44.0078 11.7110 C 43.1407 10.8906 42.1797 10.0937 41.2188 9.4141 L 41.8047 6.6250 C 41.9219 5.9922 41.7110 5.4297 41.1953 5.1484 C 40.6094 4.8437 40.0469 4.8906 39.6016 5.3594 L 37.4922 7.2110 C 36.3672 6.7188 35.2188 6.3203 34.0704 5.9922 L 33.6485 3.1563 C 33.5782 2.5469 33.1563 2.1016 32.5704 2.0078 C 31.9375 1.9141 31.4219 2.1719 31.1641 2.6875 L 29.8047 5.2657 C 29.1719 5.2188 28.6094 5.1719 28.0000 5.1719 C 27.3672 5.1719 26.8047 5.2188 26.1485 5.2657 L 24.8126 2.6875 C 24.5547 2.1719 24.0391 1.9141 23.3829 2.0078 C 22.7969 2.1016 22.3985 2.5469 22.3047 3.1563 L 21.9063 5.9688 C 20.7344 6.3203 19.5860 6.7188 18.4844 7.2110 L 16.3751 5.3594 C 15.9063 4.8906 15.3438 4.8437 14.7813 5.1484 C 14.2657 5.4297 14.0547 5.9922 14.1719 6.6250 L 14.7578 9.4141 C 13.7735 10.0937 12.8126 10.8906 11.9453 11.7110 L 9.3438 10.6563 C 8.7578 10.3984 8.1953 10.5391 7.7500 11.0781 C 7.3751 11.5000 7.3282 12.1094 7.6329 12.5781 L 9.1797 15.0391 C 8.4766 16.0235 7.9141 17.0781 7.3751 18.2032 L 4.4922 18.0859 C 3.8829 18.0625 3.3672 18.3906 3.1797 18.9766 C 2.9922 19.5625 3.1563 20.1016 3.6485 20.4532 L 5.8985 22.2578 C 5.5938 23.4063 5.3360 24.5781 5.2657 25.8437 L 2.5469 26.7110 C 1.9375 26.8984 1.6094 27.3437 1.6094 27.9766 C 1.6094 28.6094 1.9375 29.0547 2.5469 29.2657 L 5.2657 30.1328 C 5.3360 31.3750 5.5938 32.5937 5.8985 33.7188 L 3.6485 35.5 C 3.1563 35.8750 2.9922 36.4375 3.1797 37.0235 C 3.3672 37.6094 3.8829 37.9375 4.4922 37.9141 L 7.3751 37.7735 C 7.9141 38.8984 8.4766 39.9532 9.1563 40.9375 L 7.6563 43.3750 C 7.3047 43.8906 7.3516 44.5000 7.7500 44.9219 C 8.1953 45.4610 8.7578 45.5781 9.3438 45.3438 L 11.9453 44.2422 C 12.8126 45.1094 13.7735 45.8828 14.7578 46.5625 L 14.1719 49.3750 C 14.0547 49.9844 14.2657 50.5469 14.7813 50.8281 C 15.3672 51.1563 15.9297 51.0625 16.3751 50.6406 L 18.4610 48.7422 C 19.5860 49.2344 20.7344 49.6797 21.9063 49.9844 L 22.3047 52.8203 C 22.3985 53.4532 22.7969 53.8750 23.3829 53.9922 C 24.0391 54.0859 24.5547 53.8047 24.8126 53.2891 L 26.1485 50.7110 C 26.7813 50.7578 27.3672 50.8281 28.0000 50.8281 Z M 33.8829 26.5000 C 32.7813 23.5469 30.6251 21.9297 27.9297 21.9297 C 27.5313 21.9297 27.0626 21.9766 26.3126 22.1406 L 19.5860 10.6563 C 22.0938 9.4141 24.9531 8.7344 28.0000 8.7344 C 38.2188 8.7344 46.2344 16.4922 46.9611 26.5000 Z M 8.9688 28.0000 C 8.9688 21.4844 12.0391 15.7422 16.8907 12.2735 L 23.6641 23.8281 C 22.3985 25.1406 21.8126 26.5703 21.8126 28.0937 C 21.8126 29.5703 22.3751 30.9297 23.6641 32.2891 L 16.7266 43.6328 C 11.9922 40.1406 8.9688 34.4688 8.9688 28.0000 Z M 25.1172 28.0703 C 25.1172 26.4766 26.4766 25.2344 27.9766 25.2344 C 29.5704 25.2344 30.8829 26.4766 30.8829 28.0703 C 30.8829 29.6406 29.5704 30.9297 27.9766 30.9297 C 26.4766 30.9297 25.1172 29.6406 25.1172 28.0703 Z M 28.0000 47.2656 C 24.8829 47.2656 21.9766 46.5391 19.4219 45.2735 L 26.3126 34 C 27.0391 34.1875 27.5313 34.2344 27.9297 34.2344 C 30.6485 34.2344 32.8047 32.5703 33.8829 29.5469 L 46.9611 29.5469 C 46.2109 39.5078 38.1953 47.2656 28.0000 47.2656 Z" />
    </svg>
    <svg id="solve" viewBox="837.793 429 220.414 193.474">
      <path d=" M 891.471 472.279 C 861.633 486.301 841.793 511.088 841.793 539.302 C 841.793 582.998 889.383 618.474 948 618.474 C 1006.617 618.474 1054.207 582.998 1054.207 539.302 C 1054.207 495.605 1006.617 460.129 948 460.129 C 935.966 460.129 924.397 461.625 913.609 464.379 L 877 433 L 891.471 472.279 Z " fill="var(--orange-light)" stroke-width="8" stroke="var(--brown)" stroke-linejoin="round" stroke-linecap="round" stroke-miterlimit="3" />
      <text x="861" y="554" style="font:bold 38px 'LaytonTitle';text-transform:uppercase;letter-spacing:3px;user-select:none;" fill="var(--beige)" stroke="var(--brown)" stroke-width="12px" paint-order="stroke">Résoudre</text>
    </svg>
    <svg id="microphone" viewBox="0 0 24 24" fill="none" stroke="currentColor" stroke-width="2" stroke-linecap="round">
      <rect x="9" y="3" width="6" height="11" rx="3"></rect>
      <line x1="12" y1="18" x2="12" y2="21"></line>
      <line x1="8" y1="21" x2="16" y2="21"></line>
      <path d="M19,11 C19,14.866 15.866,18 12,18 C8.13401,18 5,14.866 5,11"></path>
    </svg>
    <svg id="show" viewBox="0 0 24 24" fill="none" stroke="currentColor" stroke-width="2" stroke-linecap="round" stroke-linejoin="round">
      <path d="M3.5868 13.7788C5.36623 15.5478 8.46953 17.9999 12.0002 17.9999C15.5308 17.9999 18.6335 15.5478 20.413 13.7788C20.8823 13.3123 21.1177 13.0782 21.2671 12.6201C21.3738 12.2933 21.3738 11.7067 21.2671 11.3799C21.1177 10.9218 20.8823 10.6877 20.413 10.2211C18.6335 8.45208 15.5308 6 12.0002 6C8.46953 6 5.36623 8.45208 3.5868 10.2211C3.11714 10.688 2.88229 10.9216 2.7328 11.3799C2.62618 11.7067 2.62618 12.2933 2.7328 12.6201C2.88229 13.0784 3.11714 13.3119 3.5868 13.7788Z" />
      <path d="M10 12C10 13.1046 10.8954 14 12 14C13.1046 14 14 13.1046 14 12C14 10.8954 13.1046 10 12 10C10.8954 10 10 10.8954 10 12Z" />
    </svg>
    <svg id="hide" viewBox="0 0 24 24" fill="none" stroke="currentColor" stroke-width="2" stroke-linecap="round" stroke-linejoin="round">
      <path d="M3.99989 4L19.9999 20M16.4999 16.7559C15.1473 17.4845 13.6185 17.9999 11.9999 17.9999C8.46924 17.9999 5.36624 15.5478 3.5868 13.7788C3.1171 13.3119 2.88229 13.0784 2.7328 12.6201C2.62619 12.2933 2.62616 11.7066 2.7328 11.3797C2.88233 10.9215 3.11763 10.6875 3.58827 10.2197C4.48515 9.32821 5.71801 8.26359 7.17219 7.42676M19.4999 14.6335C19.8329 14.3405 20.138 14.0523 20.4117 13.7803L20.4146 13.7772C20.8832 13.3114 21.1182 13.0779 21.2674 12.6206C21.374 12.2938 21.3738 11.7068 21.2672 11.38C21.1178 10.9219 20.8827 10.6877 20.4133 10.2211C18.6338 8.45208 15.5305 6 11.9999 6C11.6624 6 11.3288 6.02241 10.9999 6.06448M13.3228 13.5C12.9702 13.8112 12.5071 14 11.9999 14C10.8953 14 9.99989 13.1046 9.99989 12C9.99989 11.4605 10.2135 10.9711 10.5608 10.6113" />
    </svg>
  </defs>
</svg>